<svg xmlns="http://www.w3.org/2000/svg" viewBox="0 0 150.18 150"><defs><style>.cls-1,.cls-2{fill:#ffd150;stroke:#ffd150;stroke-width:2px;}.cls-1,.cls-4{stroke-linecap:round;stroke-linejoin:round;}.cls-2{stroke-miterlimit:10;}.cls-3{fill:#dfeff1;}.cls-4{fill:none;stroke:#fff;}.cls-5{font-size:12px;font-family:Dosis-SemiBold, Dosis;font-weight:700;letter-spacing:0.16em;}.cls-6{letter-spacing:0.2em;}.cls-7{letter-spacing:0.19em;}.cls-8{letter-spacing:0.11em;}.cls-9{letter-spacing:0.19em;}.cls-10{letter-spacing:0.19em;}</style></defs><title>Weather_Icons_1B</title><g id="Solid"><line class="cls-1" x1="52.97" y1="41.44" x2="52.97" y2="34.82"/><line class="cls-1" x1="41.79" y1="46.29" x2="37.11" y2="41.61"/><line class="cls-1" x1="37.34" y1="57.18" x2="30.72" y2="57.18"/><line class="cls-1" x1="64.37" y1="46.34" x2="69.05" y2="41.66"/><line class="cls-1" x1="37.5" y1="73.21" x2="42.18" y2="68.53"/><path class="cls-2" d="M49,72.36A15.72,15.72,0,1,1,68.42,53.83V72.36Z"/><path class="cls-3" d="M106.23,62.08c.38-1.94-.57-5.24-.57-5.24A19.71,19.71,0,0,0,67,59,13.23,13.23,0,0,0,53.83,70.89a8.82,8.82,0,1,0,0,17.63h52.4A13.22,13.22,0,1,0,93.76,70.89"/><path class="cls-4" d="M93.76,70.89a13.23,13.23,0,1,1,12.47,17.63H53.83a8.82,8.82,0,1,1,0-17.63A13.23,13.23,0,0,1,67,59a19.71,19.71,0,0,1,38.67-2.18s1,4.06.63,4.88"/></g><g id="Text"></g></svg>