<svg xmlns="http://www.w3.org/2000/svg" viewBox="0 0 150.18 150"><defs><style>.cls-1{stroke:#000;stroke-miterlimit:10;}.cls-1,.cls-2{stroke-width:2px;}.cls-2,.cls-3{fill:none;stroke:#fff;stroke-linecap:round;stroke-linejoin:round;}.cls-4{font-size:12px;font-family:Dosis-SemiBold, Dosis;font-weight:700;letter-spacing:0.2em;}.cls-5{letter-spacing:0.19em;}.cls-6{letter-spacing:0.19em;}</style></defs><title>Weather_Icons_1B</title><g id="Solid"><path class="cls-1" d="M45.64,72.36A15.72,15.72,0,1,1,65.1,53.83V72.36Z"/><line class="cls-2" x1="43.3" y1="53.04" x2="38.78" y2="53.04"/><line class="cls-2" x1="48.2" y1="48.89" x2="41.58" y2="48.89"/><line class="cls-2" x1="55.91" y1="58.45" x2="52.09" y2="58.45"/><path d="M102.92,62.08c.38-1.94-.57-5.24-.57-5.24A19.71,19.71,0,0,0,63.67,59,13.23,13.23,0,0,0,50.52,70.89a8.82,8.82,0,0,0,0,17.63h52.4A13.22,13.22,0,1,0,90.45,70.89"/><path class="cls-3" d="M90.45,70.89a13.23,13.23,0,1,1,12.47,17.63H50.52a8.82,8.82,0,0,1,0-17.63A13.23,13.23,0,0,1,63.67,59a19.71,19.71,0,0,1,38.67-2.18s1,4.06.63,4.88"/></g><g id="Text"></g></svg>