<svg xmlns="http://www.w3.org/2000/svg" viewBox="0 0 150.18 150"><defs><style>.cls-1{fill:none;stroke:#fff;stroke-linecap:round;stroke-linejoin:round;}.cls-2{font-size:12px;font-family:Dosis-SemiBold, Dosis;font-weight:700;letter-spacing:0.2em;}</style></defs><title>Weather_Icons_1B</title><g id="Solid"><path d="M99.09,62.08c.38-1.94-.57-5.24-.57-5.24A19.71,19.71,0,0,0,59.84,59,13.23,13.23,0,0,0,46.68,70.89a8.82,8.82,0,0,0,0,17.63h52.4A13.22,13.22,0,1,0,86.61,70.89"/><path class="cls-1" d="M86.61,70.89A13.23,13.23,0,1,1,99.09,88.53H46.68a8.82,8.82,0,0,1,0-17.63A13.23,13.23,0,0,1,59.84,59a19.71,19.71,0,0,1,38.67-2.18s1,4.06.63,4.88"/></g><g id="Text"></g></svg>