<svg xmlns="http://www.w3.org/2000/svg" viewBox="0 0 150 150"><defs><style>.cls-1,.cls-2{fill:none;stroke-linecap:round;stroke-linejoin:round;}.cls-1{stroke:#ccfeff;stroke-width:1.7px;}.cls-2{stroke:#dfeff1;stroke-width:2px;}.cls-3{font-size:12px;font-family:Dosis-SemiBold, Dosis;font-weight:700;letter-spacing:0.2em;}</style></defs><title>Weather_Icons_1B</title><g id="Lines"><line class="cls-1" x1="75" y1="74.94" x2="75" y2="102.16"/><line class="cls-1" x1="88.61" y1="88.55" x2="61.39" y2="88.55"/><line class="cls-1" x1="65.38" y1="78.93" x2="84.62" y2="98.17"/><line class="cls-1" x1="84.62" y1="78.93" x2="65.38" y2="98.17"/><polyline class="cls-1" points="65.38 82.06 68.52 82.06 68.52 78.92"/><polyline class="cls-1" points="84.62 82.06 81.48 82.06 81.48 78.92"/><polyline class="cls-1" points="81.48 98.17 81.48 95.03 84.62 95.03"/><path class="cls-1" d="M68.52,95h0Z"/><line class="cls-1" x1="68.52" y1="95.03" x2="68.52" y2="98.17"/><polyline class="cls-1" points="72.78 77.16 75 79.38 77.22 77.16"/><polyline class="cls-1" points="86.39 90.77 84.17 88.55 86.39 86.33"/><polyline class="cls-1" points="72.78 99.94 75 97.72 77.22 99.94"/><path class="cls-1" d="M65.83,88.55l-2.22-2.22Z"/><line class="cls-1" x1="65.83" y1="88.55" x2="63.61" y2="90.77"/><path class="cls-2" d="M57.19,88.53H46.6a8.82,8.82,0,1,1,0-17.63A13.23,13.23,0,0,1,59.75,59a19.71,19.71,0,0,1,38.67-2.18"/><path class="cls-2" d="M86.53,70.89A13.23,13.23,0,1,1,99,88.53H92.81"/></g><g id="Text"></g></svg>