<svg xmlns="http://www.w3.org/2000/svg" viewBox="0 0 150 150"><defs><style>.cls-1,.cls-3{fill:none;stroke-linecap:round;stroke-linejoin:round;}.cls-1{stroke:#ccfeff;stroke-width:1.7px;}.cls-2{fill:#dfeff1;}.cls-3{stroke:#fff;}.cls-4{font-size:12px;font-family:Dosis-SemiBold, Dosis;font-weight:700;letter-spacing:0.2em;}</style></defs><title>Weather_Icons_1B</title><g id="Solid"><line class="cls-1" x1="75" y1="89.53" x2="75" y2="103.16"/><line class="cls-1" x1="88.61" y1="89.55" x2="61.39" y2="89.55"/><line class="cls-1" x1="74.99" y1="89.54" x2="84.62" y2="99.17"/><line class="cls-1" x1="75" y1="89.55" x2="65.38" y2="99.17"/><polyline class="cls-1" points="81.48 99.17 81.48 96.03 84.62 96.03"/><path class="cls-1" d="M68.52,96h0Z"/><line class="cls-1" x1="68.52" y1="96.03" x2="68.52" y2="99.17"/><line class="cls-1" x1="86.39" y1="91.77" x2="84.17" y2="89.55"/><polyline class="cls-1" points="72.78 100.94 75 98.72 77.22 100.94"/><line class="cls-1" x1="65.83" y1="89.55" x2="63.61" y2="91.77"/><path class="cls-2" d="M99,62.08c.38-1.94-.57-5.24-.57-5.24A19.71,19.71,0,0,0,59.75,59,13.23,13.23,0,0,0,46.6,70.89a8.82,8.82,0,1,0,0,17.63H99A13.22,13.22,0,1,0,86.53,70.89"/><path class="cls-3" d="M86.52,70.89A13.23,13.23,0,1,1,99,88.53H46.58a8.82,8.82,0,1,1,0-17.63A13.23,13.23,0,0,1,59.74,59a19.71,19.71,0,0,1,38.67-2.18s1,4.06.63,4.88"/></g><g id="Text"></g></svg>